<svg id="Layer_1" data-name="Layer 1" xmlns="http://www.w3.org/2000/svg" width="56" height="56" viewBox="0 0 56 56"><title>appIcon</title><path d="M42,0H14A14,14,0,0,0,0,14V42A14,14,0,0,0,14,56H42A14,14,0,0,0,56,42V14A14,14,0,0,0,42,0Z" fill="#0076ff"/><path d="M47.2,33a5.2,5.2,0,0,1-4.7-3L20,38a2.8,2.8,0,0,1,0,.3,2.8,2.8,0,1,1-2.8-2.8h.6l4.8-10.4a2.4,2.4,0,0,1-.9-2.1L6.9,18.1a1.8,1.8,0,1,1,.3-1.3h0l15,5.2a2.4,2.4,0,1,1,2.4,3.7h-.9l-4.5,9.9L36.6,18.2a2.2,2.2,0,1,1,.9.9L19.8,36.8l22.3-8A5.2,5.2,0,1,1,47.2,33Z" fill="#fff"/></svg>